<?xml version="1.0" standalone="yes"?><!DOCTYPE svg PUBLIC "-//W3C//DTD SVG 1.1//EN" "http://www.w3.org/Graphics/SVG/1.1/DTD/svg11.dtd"[
<!ENTITY E10 'matrix(1.25 0.00 0.00 1.25 205.00 5.00 ) '><!ENTITY E6 'stroke:none;opacity:1;fill:rgb(255,255,255);'><!ENTITY E3 'stroke:none;opacity:1;fill:rgb(68,154,223);'><!ENTITY E8 'matrix(1.00 0.00 0.00 1.00 0.00 0.00 ) '><!ENTITY E12 'matrix(1.25 0.00 0.00 1.25 105.00 5.00 ) '><!ENTITY E5 'stroke:none;fill-rule:evenodd;opacity:1;fill:rgb(255,255,255);'><!ENTITY E16 'matrix(1.25 0.00 0.00 1.25 5.00 5.00 ) '><!ENTITY E2 'matrix(1.25 0.00 0.00 1.25 305.00 5.00 ) '><!ENTITY E1 'stroke:rgb(169,169,169);fill:none;stroke-linecap:butt;stroke-miterlimit:9;opacity:1;stroke-width:1.25;stroke-linejoin:miter;'><!ENTITY E4 'M 18.422 13 13.4357 18.5006 10.8556 15.9868 6.500101 20.5001 23.9571 20.48582 z '>
]><svg width="391.116" height="81.42773" id="SvgGdi_output" xmlns="http://www.w3.org/2000/svg"><rect id="background" height="100.00%" style="fill:rgb(255,255,255);" width="100.00%" y="0.00" x="0.00" /><g style="shape-rendering:auto;" id="root_group"><line y1="23.75" style="&E1;" id="45" x2="300.00" y2="23.75" x1="247.50" /><line y1="23.75" style="&E1;" id="46" x2="200.00" y2="23.75" x1="147.50" /><line y1="23.75" style="&E1;" id="47" x2="100.00" y2="23.75" x1="47.50" /><ellipse id="48" cy="15.00" cx="15.00" transform="&E2;" rx="15.00" ry="15.00" style="&E3;" /><path d="&E4;" style="&E5;" transform="&E2;" id="49" /><ellipse id="50" cy="10.96" cx="10.92" transform="&E2;" rx="2.75" ry="2.75" style="&E6;" /><text id="51" transform="&E8;" x="305.00" y="48.75" style="stroke:none;clip-path:url(#53_text_clipper);font-family:Microsoft Sans Serif;fill:rgb(0,0,0);font-size:9.75pt;opacity:1;"><tspan dy="9.75pt" id="55">BinaryRegion</tspan></text><text id="57" transform="&E8;" x="305.00" y="63.46" style="stroke:none;clip-path:url(#59_text_clipper);font-family:Microsoft Sans Serif;fill:rgb(0,0,0);font-size:9.75pt;opacity:1;"><tspan dy="9.75pt" id="61">Analysis</tspan></text><ellipse id="63" cy="15.00" cx="15.00" transform="&E10;" rx="15.00" ry="15.00" style="&E3;" /><path d="&E4;" style="&E5;" transform="&E10;" id="64" /><ellipse id="65" cy="10.96" cx="10.92" transform="&E10;" rx="2.75" ry="2.75" style="&E6;" /><text id="66" transform="&E8;" x="205.00" y="48.75" style="stroke:none;clip-path:url(#68_text_clipper);font-family:Microsoft Sans Serif;fill:rgb(0,0,0);font-size:9.75pt;opacity:1;"><tspan dy="9.75pt" id="70">Threshold</tspan></text><ellipse id="72" cy="15.00" cx="15.00" transform="&E12;" rx="15.00" ry="15.00" style="&E3;" /><path d="&E4;" style="&E5;" transform="&E12;" id="73" /><ellipse id="74" cy="10.96" cx="10.92" transform="&E12;" rx="2.75" ry="2.75" style="&E6;" /><text id="75" transform="&E8;" x="105.00" y="48.75" style="stroke:none;clip-path:url(#77_text_clipper);font-family:Microsoft Sans Serif;fill:rgb(0,0,0);font-size:9.75pt;opacity:1;"><tspan dy="9.75pt" id="79">HsvThreshold</tspan></text><path transform="&E16;" id="81" d="M 31.179 5.2 C 34.9985 11.0918 34.9814 18.682 31.13552 24.557 " style="stroke:rgb(169,169,169);fill:none;stroke-linecap:butt;stroke-miterlimit:9;opacity:1;stroke-width:2;stroke-linejoin:miter;" /><ellipse id="82" cy="15.00" cx="15.00" transform="&E16;" rx="15.00" ry="15.00" style="stroke:none;opacity:1;fill:rgb(91,178,126);" /><path style="&E5;" transform="&E16;" id="83" d="M 23.75 9.1 19.5587 11.5211 19.5587 18.3937 23.75 20.8147 z " /><path style="&E5;" transform="&E16;" id="84" d="M 8.6927 9.2 15.7194 9.2 C 17.19 9.2 18.3739 10.4337 18.3739 11.9661 L 18.3739 17.8234 C 18.3739 19.3558 17.19 20.5893 15.7194 20.5893 L 8.692701 20.5893 C 7.222101 20.5893 6.038201 19.3558 6.038201 17.8234 L 6.038201 11.9661 C 6.038201 10.4337 7.222101 9.199999 8.692701 9.199999 z " /><text id="85" transform="&E8;" x="5.00" y="48.75" style="stroke:none;clip-path:url(#87_text_clipper);font-family:Microsoft Sans Serif;fill:rgb(0,0,0);font-size:9.75pt;opacity:1;"><tspan dy="9.75pt" id="89">Camera</tspan></text><text id="91" transform="&E8;" x="5.00" y="63.46" style="stroke:none;clip-path:url(#93_text_clipper);font-family:Microsoft Sans Serif;fill:rgb(0,0,0);font-size:9.75pt;opacity:1;"><tspan dy="9.75pt" id="95">Capture</tspan></text></g><defs id="clips_hatches_and_gradients"><clipPath id="53_text_clipper"><rect x="305.00" y="48.75" width="84.87" height="32.68" id="54" /></clipPath><clipPath id="59_text_clipper"><rect x="305.00" y="63.46" width="84.87" height="32.68" id="60" /></clipPath><clipPath id="68_text_clipper"><rect x="205.00" y="48.75" width="63.95" height="16.34" id="69" /></clipPath><clipPath id="77_text_clipper"><rect x="105.00" y="48.75" width="87.01" height="16.34" id="78" /></clipPath><clipPath id="87_text_clipper"><rect x="5.00" y="48.75" width="51.96" height="32.68" id="88" /></clipPath><clipPath id="93_text_clipper"><rect x="5.00" y="63.46" width="51.96" height="32.68" id="94" /></clipPath></defs></svg>